<?xml version="1.0" encoding="UTF-8" standalone="no"?>
<!-- Created with Inkscape (http://www.inkscape.org/) -->

<svg
   xmlns:dc="http://purl.org/dc/elements/1.1/"
   xmlns:cc="http://creativecommons.org/ns#"
   xmlns:rdf="http://www.w3.org/1999/02/22-rdf-syntax-ns#"
   xmlns:svg="http://www.w3.org/2000/svg"
   xmlns="http://www.w3.org/2000/svg"
   xmlns:sodipodi="http://sodipodi.sourceforge.net/DTD/sodipodi-0.dtd"
   xmlns:inkscape="http://www.inkscape.org/namespaces/inkscape"
   width="300"
   height="300"
   viewBox="0 0 79.374998 79.375002"
   version="1.1"
   id="svg3708"
   sodipodi:docname="c++.svg"
   inkscape:version="0.92.4 5da689c313, 2019-01-14">
  <defs
     id="defs3702">
	

	

	

	

	
</defs>
  <sodipodi:namedview
     id="base"
     pagecolor="#ffffff"
     bordercolor="#666666"
     borderopacity="1.0"
     inkscape:pageopacity="0.0"
     inkscape:pageshadow="2"
     inkscape:zoom="1.979899"
     inkscape:cx="187.73628"
     inkscape:cy="136.21599"
     inkscape:document-units="px"
     inkscape:current-layer="layer1"
     showgrid="false"
     units="px"
     inkscape:window-width="1366"
     inkscape:window-height="703"
     inkscape:window-x="0"
     inkscape:window-y="29"
     inkscape:window-maximized="1" />
  <metadata
     id="metadata3705">
    <rdf:RDF>
      <cc:Work
         rdf:about="">
        <dc:format>image/svg+xml</dc:format>
        <dc:type
           rdf:resource="http://purl.org/dc/dcmitype/StillImage" />
        <dc:title></dc:title>
      </cc:Work>
    </rdf:RDF>
  </metadata>
  <g
     inkscape:label="Layer 1"
     inkscape:groupmode="layer"
     id="layer1"
     transform="translate(0,-217.62498)">
    <path
       style="fill:#00599c;stroke-width:0.87120914"
       d="M 279.9043 75 L 204.41797 118.58203 L 188.49609 127.79492 C 188.493 127.78958 188.48942 127.78464 188.48633 127.7793 L 150 150 L 188.48828 172.2207 C 188.49182 172.21459 188.49646 172.20924 188.5 172.20312 L 207.25195 183.05469 L 279.9043 225 C 281.99607 221.37664 283.29492 217.29497 283.29492 213.62891 L 283.29492 86.371094 C 283.29492 82.705028 281.99694 78.623357 279.9043 75 z M 219.11719 135.18945 L 228.98828 135.18945 L 228.98828 145.0625 L 238.86328 145.0625 L 238.86328 154.9375 L 228.98828 154.9375 L 228.98828 164.81055 L 219.11719 164.81055 L 219.11719 154.9375 L 209.24219 154.9375 L 209.24219 145.0625 L 219.11719 145.0625 L 219.11719 135.18945 z M 256.14258 135.18945 L 266.01562 135.18945 L 266.01562 145.0625 L 275.89062 145.0625 L 275.89062 154.9375 L 266.01562 154.9375 L 266.01562 164.81055 L 256.14258 164.81055 L 256.14258 154.9375 L 246.26953 154.9375 L 246.26953 145.0625 L 256.14258 145.0625 L 256.14258 135.18945 z "
       transform="matrix(0.26458333,0,0,0.26458333,0,217.62498)"
       id="path4313" />
    <path
       style="fill:#004482;stroke-width:0.87120914"
       d="M 150 150 L 111.53906 172.20508 C 119.23206 185.47823 133.58548 194.43164 150 194.43164 C 165.80713 194.43164 180.55251 185.92189 188.48828 172.2207 L 150 150 z M 207.25195 183.05469 L 226.95703 194.45703 C 211.10799 221.8487 181.61966 238.86328 150 238.86328 C 117.1716 238.86328 88.446751 220.9681 73.060547 194.42188 L 20.095703 225.00195 C 22.187476 228.62531 25.074232 231.79088 28.248047 233.62305 L 138.45703 297.25 C 144.80553 300.91603 155.19447 300.91603 161.54297 297.25 L 271.75195 233.62305 C 274.92664 231.79001 277.81252 228.62423 279.9043 225 L 207.25195 183.05469 z "
       transform="matrix(0.26458333,0,0,0.26458333,0,217.62498)"
       id="path4315" />
    <path
       style="fill:#659ad2;stroke-width:0.87120914"
       d="M 150 0 C 145.81536 0 141.63128 0.91698583 138.45703 2.75 L 28.248047 66.376953 C 21.898675 70.04215 16.705078 79.039869 16.705078 86.371094 L 16.705078 213.62891 C 16.705078 217.29497 18.003059 221.37664 20.095703 225 L 73.060547 194.42188 C 65.481418 181.3454 61.136719 166.17101 61.136719 150 C 61.136719 101.00058 101.00058 61.136719 150 61.136719 C 181.61792 61.136719 211.10604 78.151951 226.95508 105.54102 L 204.41797 118.58203 L 279.9043 75 C 277.81165 71.375773 274.92577 68.209986 271.75195 66.376953 L 161.54297 2.75 C 158.36872 0.91698583 154.18464 0 150 0 z M 150 105.56836 C 125.49986 105.56836 105.56836 125.49986 105.56836 150 C 105.56836 158.08532 107.74958 165.66686 111.53906 172.20508 L 150 150 L 188.48633 127.7793 C 180.55175 114.07935 165.80629 105.56836 150 105.56836 z "
       transform="matrix(0.26458333,0,0,0.26458333,0,217.62498)"
       id="path4317" />
  </g>
</svg>
