<?xml version="1.0" encoding="UTF-8" standalone="no"?>
<!-- Created with Inkscape (http://www.inkscape.org/) -->

<svg
   xmlns:dc="http://purl.org/dc/elements/1.1/"
   xmlns:cc="http://creativecommons.org/ns#"
   xmlns:rdf="http://www.w3.org/1999/02/22-rdf-syntax-ns#"
   xmlns:svg="http://www.w3.org/2000/svg"
   xmlns="http://www.w3.org/2000/svg"
   xmlns:sodipodi="http://sodipodi.sourceforge.net/DTD/sodipodi-0.dtd"
   xmlns:inkscape="http://www.inkscape.org/namespaces/inkscape"
   width="300"
   height="300"
   viewBox="0 0 79.374999 79.375002"
   version="1.1"
   id="svg8"
   inkscape:version="0.92.4 5da689c313, 2019-01-14"
   sodipodi:docname="java.svg">
  <defs
     id="defs2" />
  <sodipodi:namedview
     id="base"
     pagecolor="#ffffff"
     bordercolor="#666666"
     borderopacity="1.0"
     inkscape:pageopacity="0.0"
     inkscape:pageshadow="2"
     inkscape:zoom="0.7"
     inkscape:cx="27.266797"
     inkscape:cy="162.11724"
     inkscape:document-units="px"
     inkscape:current-layer="layer2"
     showgrid="false"
     units="px"
     inkscape:window-width="1366"
     inkscape:window-height="703"
     inkscape:window-x="0"
     inkscape:window-y="29"
     inkscape:window-maximized="1" />
  <metadata
     id="metadata5">
    <rdf:RDF>
      <cc:Work
         rdf:about="">
        <dc:format>image/svg+xml</dc:format>
        <dc:type
           rdf:resource="http://purl.org/dc/dcmitype/StillImage" />
        <dc:title></dc:title>
      </cc:Work>
    </rdf:RDF>
  </metadata>
  <g
     inkscape:groupmode="layer"
     id="layer2"
     inkscape:label="Layer 2">
    <path
       style="opacity:1;fill:#5382a1;fill-opacity:1;stroke:none;stroke-width:0.2995097;stroke-linecap:round;stroke-linejoin:miter;stroke-miterlimit:4;stroke-dasharray:none;stroke-opacity:1"
       d="M 0 0 L 0 300 L 300 300 L 300 0 L 0 0 z M 175.01562 25 C 175.01562 25 200.99241 50.985899 150.37891 90.943359 C 109.79202 122.99613 141.12327 141.2717 150.36133 162.15234 C 126.67011 140.77711 109.28324 121.96008 120.94727 104.44727 C 138.0673 78.739912 185.4964 66.275457 175.01562 25 z M 206.33398 76.060547 C 151.80963 107.68272 161.88204 116.85554 175.01562 135.31445 C 189.07781 155.10822 158.45898 170.91406 158.45898 170.91406 C 158.45898 170.91406 173.68584 158.42071 161.62695 144.53711 C 120.74964 97.436373 206.33398 76.060547 206.33398 76.060547 z M 221.49219 160.19336 C 245.97618 160.14586 258.14275 194.7299 202.35156 209.39648 C 202.35156 209.39713 203.07795 208.74816 203.29492 208.16797 C 250.19898 183.79485 228.51195 160.37373 213.375 163.5293 C 209.66489 164.30149 208.00977 164.9707 208.00977 164.9707 C 208.00977 164.9707 209.38694 162.81283 212.01758 161.87891 C 215.29289 160.72742 218.48538 160.19919 221.49219 160.19336 z M 119.05273 162.57812 C 119.87572 162.56186 120.52512 162.56761 120.98438 162.57812 C 121.5092 162.59017 121.78516 162.60742 121.78516 162.60742 C 121.78516 162.60742 76.34862 173.39937 105.69531 177.31836 C 118.0864 178.97735 142.78823 178.6036 165.79688 176.67578 C 184.60077 175.08959 203.48242 171.7168 203.48242 171.7168 C 203.48242 171.7168 196.85169 174.55654 192.05469 177.83203 C 145.91408 189.96704 56.778612 184.32085 82.439453 171.9082 C 99.054598 163.87666 113.29185 162.69219 119.05273 162.57812 z M 111.21094 190.9668 C 111.21094 190.9668 100.49666 198.89914 116.86133 200.5918 C 138.02367 202.775 154.73547 202.95329 183.6543 197.38477 C 183.6543 197.38477 187.65381 201.4406 193.94336 203.6582 C 134.77153 220.9608 68.86467 205.02154 111.21094 190.9668 z M 117.19141 218.33789 C 117.19141 218.33789 107.63769 223.89538 123.99023 225.77539 C 143.80088 228.0354 153.92635 227.71006 175.75781 223.57812 C 175.75781 223.57812 181.49778 227.17776 189.51367 230.29492 C 140.5733 251.2699 78.751341 229.07874 117.19141 218.33789 z M 91.666016 236.47266 C 94.332267 236.50098 96.514824 236.93714 97.871094 237.89258 C 97.871094 237.89258 94.735732 237.67134 89.248047 238.86133 C 83.986098 239.99137 67.257555 245.37527 76.177734 249.25586 C 100.99225 260.05673 190.31933 257.47366 218.56836 248.91602 C 233.42432 244.40946 226.35352 238.58398 226.35352 238.58398 C 252.23606 250.25876 170.12349 273.72693 70.339844 257.54492 C 39.467836 252.54059 73.231082 237.01628 90.494141 236.48438 C 90.893748 236.47206 91.285123 236.46861 91.666016 236.47266 z M 242.19141 251.3125 C 240.55399 272.61566 171.41658 277.09681 126.39453 274.21484 C 96.804572 272.31733 91.051454 267.55404 91.050781 267.55469 C 119.16101 272.1893 166.55516 273.0323 204.98242 265.80078 C 239.04325 259.38726 242.19141 251.3125 242.19141 251.3125 z "
       transform="scale(0.26458333)"
       id="rect870" />
  </g>
  <g
     inkscape:label="Layer 1"
     inkscape:groupmode="layer"
     id="layer1"
     transform="translate(0,-217.62497)" />
</svg>
