<?xml version="1.0" encoding="UTF-8" standalone="no"?>
<!-- Created with Inkscape (http://www.inkscape.org/) -->

<svg
   xmlns:dc="http://purl.org/dc/elements/1.1/"
   xmlns:cc="http://creativecommons.org/ns#"
   xmlns:rdf="http://www.w3.org/1999/02/22-rdf-syntax-ns#"
   xmlns:svg="http://www.w3.org/2000/svg"
   xmlns="http://www.w3.org/2000/svg"
   xmlns:sodipodi="http://sodipodi.sourceforge.net/DTD/sodipodi-0.dtd"
   xmlns:inkscape="http://www.inkscape.org/namespaces/inkscape"
   width="300"
   height="300"
   viewBox="0 0 79.374998 79.375002"
   version="1.1"
   id="svg3105"
   inkscape:version="0.92.4 5da689c313, 2019-01-14"
   sodipodi:docname="python.svg">
  <defs
     id="defs3099" />
  <sodipodi:namedview
     id="base"
     pagecolor="#ffffff"
     bordercolor="#666666"
     borderopacity="1.0"
     inkscape:pageopacity="0.0"
     inkscape:pageshadow="2"
     inkscape:zoom="1.4"
     inkscape:cx="185.72356"
     inkscape:cy="157.47145"
     inkscape:document-units="px"
     inkscape:current-layer="layer1"
     showgrid="false"
     units="px"
     inkscape:window-width="1366"
     inkscape:window-height="703"
     inkscape:window-x="0"
     inkscape:window-y="29"
     inkscape:window-maximized="1" />
  <metadata
     id="metadata3102">
    <rdf:RDF>
      <cc:Work
         rdf:about="">
        <dc:format>image/svg+xml</dc:format>
        <dc:type
           rdf:resource="http://purl.org/dc/dcmitype/StillImage" />
        <dc:title></dc:title>
      </cc:Work>
    </rdf:RDF>
  </metadata>
  <g
     inkscape:label="Layer 1"
     inkscape:groupmode="layer"
     id="layer1"
     transform="translate(0,-217.62499)">
    <path
       id="path8615"
       d="m 39.401347,217.62499 c -20.150295,0 -18.89198,8.78413 -18.89198,8.78413 l 0.02246,9.10026 h 19.228937 v 2.73234 H 12.894169 c 0,0 -12.89417012125,-1.46997 -12.89417012125,18.9683 C -2.5589275e-6,277.64829 11.254318,276.9235 11.254318,276.9235 h 6.716649 v -9.48415 c 0,0 -0.362044,-11.31323 11.07461,-11.31323 11.436652,0 19.07169,0 19.07169,0 0,0 10.71519,0.17412 10.71519,-10.40999 0,-10.58409 0,-17.50051 0,-17.50051 0,0 1.626861,-10.59063 -19.43111,-10.59063 z m -10.602871,6.11953 c 1.913138,0 3.459411,1.55437 3.459411,3.47752 2e-6,1.92316 -1.546273,3.47752 -3.459411,3.47752 -1.913138,1e-5 -3.459412,-1.55436 -3.459412,-3.47752 -1e-6,-1.92315 1.546274,-3.47752 3.459412,-3.47752 z"
       style="color:#000000;display:inline;overflow:visible;visibility:visible;opacity:1;fill:#387eb8;fill-opacity:1;fill-rule:nonzero;stroke:none;stroke-width:0.72071785;stroke-linecap:butt;stroke-linejoin:miter;stroke-miterlimit:4;stroke-dasharray:none;stroke-dashoffset:0;stroke-opacity:1;marker:none;marker-start:none;marker-mid:none;marker-end:none"
       inkscape:connector-curvature="0" />
    <path
       style="color:#000000;display:inline;overflow:visible;visibility:visible;opacity:1;fill:#ffe052;fill-opacity:1;fill-rule:nonzero;stroke:none;stroke-width:0.72071785;stroke-linecap:butt;stroke-linejoin:miter;stroke-miterlimit:4;stroke-dasharray:none;stroke-dashoffset:0;stroke-opacity:1;marker:none;marker-start:none;marker-mid:none;marker-end:none"
       d="m 39.973615,296.99999 c 20.1503,0 18.89198,-8.78413 18.89198,-8.78413 l -0.02243,-9.10027 H 39.614231 v -2.73234 h 26.866598 c 0,0 12.89417,1.46997 12.89417,-18.96831 7e-6,-20.43826 -11.254319,-19.71348 -11.254319,-19.71348 h -6.716649 v 9.48415 c 0,0 0.36205,11.31324 -11.07461,11.31324 -11.436654,0 -19.071691,0 -19.071691,0 0,0 -10.71519,-0.17412 -10.71519,10.40999 0,10.58409 0,17.50051 0,17.50051 0,0 -1.626862,10.59064 19.431111,10.59064 z m 10.602871,-6.11954 c -1.913139,0 -3.459411,-1.55437 -3.459411,-3.47752 0,-1.92315 1.546272,-3.47752 3.459411,-3.47752 1.913139,0 3.459412,1.55437 3.459412,3.47752 7e-6,1.92315 -1.546273,3.47752 -3.459412,3.47752 z"
       id="path8620"
       inkscape:connector-curvature="0" />
  </g>
</svg>
